<?xml version="1.0" standalone="no"?>
<svg xmlns:xlink="http://www.w3.org/1999/xlink" id="wave" style="transform:rotate(0deg); transition: 0.3s" viewBox="0 0 1440 490" version="1.1" xmlns="http://www.w3.org/2000/svg"><defs><linearGradient id="sw-gradient-0" x1="0" x2="0" y1="1" y2="0"><stop stop-color="rgba(243, 106, 62, 1)" offset="0%"/><stop stop-color="rgba(255, 179, 11, 1)" offset="100%"/></linearGradient></defs><path style="transform:translate(0, 0px); opacity:1" fill="url(#sw-gradient-0)" d="M0,441L30,383.8C60,327,120,212,180,171.5C240,131,300,163,360,147C420,131,480,65,540,98C600,131,660,261,720,294C780,327,840,261,900,261.3C960,261,1020,327,1080,294C1140,261,1200,131,1260,81.7C1320,33,1380,65,1440,98C1500,131,1560,163,1620,171.5C1680,180,1740,163,1800,163.3C1860,163,1920,180,1980,196C2040,212,2100,229,2160,245C2220,261,2280,278,2340,261.3C2400,245,2460,196,2520,155.2C2580,114,2640,82,2700,89.8C2760,98,2820,147,2880,212.3C2940,278,3000,359,3060,359.3C3120,359,3180,278,3240,204.2C3300,131,3360,65,3420,49C3480,33,3540,65,3600,98C3660,131,3720,163,3780,212.3C3840,261,3900,327,3960,326.7C4020,327,4080,261,4140,236.8C4200,212,4260,229,4290,236.8L4320,245L4320,490L4290,490C4260,490,4200,490,4140,490C4080,490,4020,490,3960,490C3900,490,3840,490,3780,490C3720,490,3660,490,3600,490C3540,490,3480,490,3420,490C3360,490,3300,490,3240,490C3180,490,3120,490,3060,490C3000,490,2940,490,2880,490C2820,490,2760,490,2700,490C2640,490,2580,490,2520,490C2460,490,2400,490,2340,490C2280,490,2220,490,2160,490C2100,490,2040,490,1980,490C1920,490,1860,490,1800,490C1740,490,1680,490,1620,490C1560,490,1500,490,1440,490C1380,490,1320,490,1260,490C1200,490,1140,490,1080,490C1020,490,960,490,900,490C840,490,780,490,720,490C660,490,600,490,540,490C480,490,420,490,360,490C300,490,240,490,180,490C120,490,60,490,30,490L0,490Z"/><defs><linearGradient id="sw-gradient-1" x1="0" x2="0" y1="1" y2="0"><stop stop-color="rgba(243, 106, 62, 1)" offset="0%"/><stop stop-color="rgba(255, 179, 11, 1)" offset="100%"/></linearGradient></defs><path style="transform:translate(0, 50px); opacity:0.9" fill="url(#sw-gradient-1)" d="M0,441L30,432.8C60,425,120,408,180,359.3C240,310,300,229,360,212.3C420,196,480,245,540,220.5C600,196,660,98,720,65.3C780,33,840,65,900,81.7C960,98,1020,98,1080,114.3C1140,131,1200,163,1260,155.2C1320,147,1380,98,1440,130.7C1500,163,1560,278,1620,318.5C1680,359,1740,327,1800,261.3C1860,196,1920,98,1980,81.7C2040,65,2100,131,2160,179.7C2220,229,2280,261,2340,269.5C2400,278,2460,261,2520,277.7C2580,294,2640,343,2700,375.7C2760,408,2820,425,2880,400.2C2940,376,3000,310,3060,253.2C3120,196,3180,147,3240,155.2C3300,163,3360,229,3420,245C3480,261,3540,229,3600,179.7C3660,131,3720,65,3780,73.5C3840,82,3900,163,3960,204.2C4020,245,4080,245,4140,253.2C4200,261,4260,278,4290,285.8L4320,294L4320,490L4290,490C4260,490,4200,490,4140,490C4080,490,4020,490,3960,490C3900,490,3840,490,3780,490C3720,490,3660,490,3600,490C3540,490,3480,490,3420,490C3360,490,3300,490,3240,490C3180,490,3120,490,3060,490C3000,490,2940,490,2880,490C2820,490,2760,490,2700,490C2640,490,2580,490,2520,490C2460,490,2400,490,2340,490C2280,490,2220,490,2160,490C2100,490,2040,490,1980,490C1920,490,1860,490,1800,490C1740,490,1680,490,1620,490C1560,490,1500,490,1440,490C1380,490,1320,490,1260,490C1200,490,1140,490,1080,490C1020,490,960,490,900,490C840,490,780,490,720,490C660,490,600,490,540,490C480,490,420,490,360,490C300,490,240,490,180,490C120,490,60,490,30,490L0,490Z"/><defs><linearGradient id="sw-gradient-2" x1="0" x2="0" y1="1" y2="0"><stop stop-color="rgba(243, 106, 62, 1)" offset="0%"/><stop stop-color="rgba(255, 179, 11, 1)" offset="100%"/></linearGradient></defs><path style="transform:translate(0, 100px); opacity:0.8" fill="url(#sw-gradient-2)" d="M0,196L30,212.3C60,229,120,261,180,245C240,229,300,163,360,155.2C420,147,480,196,540,220.5C600,245,660,245,720,269.5C780,294,840,343,900,318.5C960,294,1020,196,1080,187.8C1140,180,1200,261,1260,269.5C1320,278,1380,212,1440,212.3C1500,212,1560,278,1620,261.3C1680,245,1740,147,1800,122.5C1860,98,1920,147,1980,179.7C2040,212,2100,229,2160,204.2C2220,180,2280,114,2340,122.5C2400,131,2460,212,2520,269.5C2580,327,2640,359,2700,334.8C2760,310,2820,229,2880,179.7C2940,131,3000,114,3060,89.8C3120,65,3180,33,3240,65.3C3300,98,3360,196,3420,245C3480,294,3540,294,3600,261.3C3660,229,3720,163,3780,122.5C3840,82,3900,65,3960,73.5C4020,82,4080,114,4140,155.2C4200,196,4260,245,4290,269.5L4320,294L4320,490L4290,490C4260,490,4200,490,4140,490C4080,490,4020,490,3960,490C3900,490,3840,490,3780,490C3720,490,3660,490,3600,490C3540,490,3480,490,3420,490C3360,490,3300,490,3240,490C3180,490,3120,490,3060,490C3000,490,2940,490,2880,490C2820,490,2760,490,2700,490C2640,490,2580,490,2520,490C2460,490,2400,490,2340,490C2280,490,2220,490,2160,490C2100,490,2040,490,1980,490C1920,490,1860,490,1800,490C1740,490,1680,490,1620,490C1560,490,1500,490,1440,490C1380,490,1320,490,1260,490C1200,490,1140,490,1080,490C1020,490,960,490,900,490C840,490,780,490,720,490C660,490,600,490,540,490C480,490,420,490,360,490C300,490,240,490,180,490C120,490,60,490,30,490L0,490Z"/><defs><linearGradient id="sw-gradient-3" x1="0" x2="0" y1="1" y2="0"><stop stop-color="rgba(243, 106, 62, 1)" offset="0%"/><stop stop-color="rgba(255, 179, 11, 1)" offset="100%"/></linearGradient></defs><path style="transform:translate(0, 150px); opacity:0.7" fill="url(#sw-gradient-3)" d="M0,49L30,40.8C60,33,120,16,180,32.7C240,49,300,98,360,147C420,196,480,245,540,245C600,245,660,196,720,163.3C780,131,840,114,900,138.8C960,163,1020,229,1080,212.3C1140,196,1200,98,1260,98C1320,98,1380,196,1440,245C1500,294,1560,294,1620,245C1680,196,1740,98,1800,81.7C1860,65,1920,131,1980,163.3C2040,196,2100,196,2160,171.5C2220,147,2280,98,2340,73.5C2400,49,2460,49,2520,106.2C2580,163,2640,278,2700,277.7C2760,278,2820,163,2880,130.7C2940,98,3000,147,3060,147C3120,147,3180,98,3240,81.7C3300,65,3360,82,3420,98C3480,114,3540,131,3600,130.7C3660,131,3720,114,3780,147C3840,180,3900,261,3960,253.2C4020,245,4080,147,4140,130.7C4200,114,4260,180,4290,212.3L4320,245L4320,490L4290,490C4260,490,4200,490,4140,490C4080,490,4020,490,3960,490C3900,490,3840,490,3780,490C3720,490,3660,490,3600,490C3540,490,3480,490,3420,490C3360,490,3300,490,3240,490C3180,490,3120,490,3060,490C3000,490,2940,490,2880,490C2820,490,2760,490,2700,490C2640,490,2580,490,2520,490C2460,490,2400,490,2340,490C2280,490,2220,490,2160,490C2100,490,2040,490,1980,490C1920,490,1860,490,1800,490C1740,490,1680,490,1620,490C1560,490,1500,490,1440,490C1380,490,1320,490,1260,490C1200,490,1140,490,1080,490C1020,490,960,490,900,490C840,490,780,490,720,490C660,490,600,490,540,490C480,490,420,490,360,490C300,490,240,490,180,490C120,490,60,490,30,490L0,490Z"/></svg>